<?xml version="1.0" encoding="UTF-8"?>
<svg id="logosandtypes_com" data-name="logosandtypes com" xmlns="http://www.w3.org/2000/svg" viewBox="0 0 150 150">
  <defs>
    <style>
      .cls-1 {
        fill: #ffffff;
      }

      .cls-2 {
        fill: none;
      }
    </style>
  </defs>
  <path class="cls-2" d="M0,0H150V150H0V0Z"/>
  <path class="cls-1" d="M136.66,119.44c.63-.79,.81-1.92,.29-2.79-7.25-12.1-5.7-30.88,1.2-43.44,.36-.65,.22-1.42-.17-2.01-.15-.21-.32-.38-.53-.53l-13.01-8.99c-.11-.08-.23-.15-.35-.19h0c-.86-.37-1.88-.11-2.46,.66-8.84,11.72-22.71,17.13-40.25,13.55-.27-.06-.54-.04-.79,.04-.3,.09-.57,.28-.76,.54l-10.23,12.93c-.17,.23-.27,.49-.29,.76-.06,.53,.17,1.06,.63,1.41,9.2,6.96,22.86,5.65,29.23,1.62,0,0-10.78,16.91-30.03,16.95-15.95,.03-28.24-12.32-28.24-28.39,0-10.69,3.74-21.94,12.57-30.39,7.01,7.19,19,15.58,33.74,16.23,13.47,.59,26-3.76,29.84-14.53,4.06-11.42-.31-21.1-8.36-27.32-10.49-8.1-33.13-9.9-49.87-3.28,0,0-.84-2.96,1.13-8.14,.32-.83-.05-1.78-.78-2.29L44.68,1.67c-.76-.53-1.76-.25-2.24,.53-3.7,6.06-7.57,19-2.42,31.22-15.75,13.05-23.21,31.91-23.21,49.71,0,27.38,20.49,48.38,51.25,48.38,19.54,0,37.71-10.54,47.15-26.5,0,0-4.78,16.88,8.48,26.7,1.01,.75,2.36,.81,3.14-.18l9.83-12.09h0ZM96.17,44.79c-1.37,5.51-17.39,3.05-24.52-4.87,10.98-4.98,26.19-1.82,24.52,4.87Z"/>
</svg> 